%TF.GenerationSoftware,KiCad,Pcbnew,6.0.7-f9a2dced07~116~ubuntu22.04.1*%
%TF.CreationDate,2022-09-09T13:02:49-03:00*%
%TF.ProjectId,DriverAlarme,44726976-6572-4416-9c61-726d652e6b69,rev?*%
%TF.SameCoordinates,Original*%
%TF.FileFunction,Soldermask,Bot*%
%TF.FilePolarity,Negative*%
%FSLAX46Y46*%
G04 Gerber Fmt 4.6, Leading zero omitted, Abs format (unit mm)*
G04 Created by KiCad (PCBNEW 6.0.7-f9a2dced07~116~ubuntu22.04.1) date 2022-09-09 13:02:49*
%MOMM*%
%LPD*%
G01*
G04 APERTURE LIST*
G04 Aperture macros list*
%AMRoundRect*
0 Rectangle with rounded corners*
0 $1 Rounding radius*
0 $2 $3 $4 $5 $6 $7 $8 $9 X,Y pos of 4 corners*
0 Add a 4 corners polygon primitive as box body*
4,1,4,$2,$3,$4,$5,$6,$7,$8,$9,$2,$3,0*
0 Add four circle primitives for the rounded corners*
1,1,$1+$1,$2,$3*
1,1,$1+$1,$4,$5*
1,1,$1+$1,$6,$7*
1,1,$1+$1,$8,$9*
0 Add four rect primitives between the rounded corners*
20,1,$1+$1,$2,$3,$4,$5,0*
20,1,$1+$1,$4,$5,$6,$7,0*
20,1,$1+$1,$6,$7,$8,$9,0*
20,1,$1+$1,$8,$9,$2,$3,0*%
G04 Aperture macros list end*
%ADD10RoundRect,0.250000X1.550000X-0.650000X1.550000X0.650000X-1.550000X0.650000X-1.550000X-0.650000X0*%
%ADD11O,3.600000X1.800000*%
%ADD12C,1.440000*%
%ADD13R,2.500000X2.500000*%
%ADD14O,2.500000X2.500000*%
%ADD15C,1.400000*%
%ADD16O,1.400000X1.400000*%
%ADD17R,1.050000X1.500000*%
%ADD18O,1.050000X1.500000*%
%ADD19RoundRect,0.250000X-1.550000X0.650000X-1.550000X-0.650000X1.550000X-0.650000X1.550000X0.650000X0*%
%ADD20R,2.200000X2.200000*%
%ADD21O,2.200000X2.200000*%
G04 APERTURE END LIST*
D10*
%TO.C,J3*%
X116867500Y-48885000D03*
D11*
X116867500Y-43805000D03*
%TD*%
D12*
%TO.C,RV2*%
X73145000Y-75340000D03*
X78225000Y-72800000D03*
X73145000Y-70260000D03*
%TD*%
%TO.C,RV1*%
X73945000Y-54540000D03*
X79025000Y-52000000D03*
X73945000Y-49460000D03*
%TD*%
D13*
%TO.C,RL2*%
X89762500Y-75687500D03*
D14*
X104762500Y-75687500D03*
X109762500Y-75687500D03*
X114762500Y-75687500D03*
X114762500Y-68187500D03*
X109762500Y-68187500D03*
X104762500Y-68187500D03*
X89762500Y-68187500D03*
%TD*%
D13*
%TO.C,RL1*%
X86162500Y-51287500D03*
D14*
X101162500Y-51287500D03*
X106162500Y-51287500D03*
X111162500Y-51287500D03*
X111162500Y-43787500D03*
X106162500Y-43787500D03*
X101162500Y-43787500D03*
X86162500Y-43787500D03*
%TD*%
D15*
%TO.C,R9*%
X115400000Y-61200000D03*
D16*
X115400000Y-53580000D03*
%TD*%
D15*
%TO.C,R8*%
X103790000Y-62000000D03*
D16*
X111410000Y-62000000D03*
%TD*%
%TO.C,R7*%
X111420000Y-56000000D03*
D15*
X103800000Y-56000000D03*
%TD*%
%TO.C,R4*%
X66600000Y-68800000D03*
D16*
X66600000Y-76420000D03*
%TD*%
D15*
%TO.C,R3*%
X68600000Y-59610000D03*
D16*
X68600000Y-51990000D03*
%TD*%
D15*
%TO.C,R2*%
X68400000Y-49010000D03*
D16*
X68400000Y-41390000D03*
%TD*%
D15*
%TO.C,R1*%
X63400000Y-76410000D03*
D16*
X63400000Y-68790000D03*
%TD*%
D17*
%TO.C,Q2*%
X72530000Y-62760000D03*
D18*
X73800000Y-62760000D03*
X75070000Y-62760000D03*
%TD*%
D17*
%TO.C,Q1*%
X71930000Y-43160000D03*
D18*
X73200000Y-43160000D03*
X74470000Y-43160000D03*
%TD*%
D19*
%TO.C,J2*%
X62932500Y-56715000D03*
D11*
X62932500Y-61795000D03*
%TD*%
D19*
%TO.C,J1*%
X63732500Y-43515000D03*
D11*
X63732500Y-48595000D03*
%TD*%
D20*
%TO.C,D2*%
X85000000Y-77280000D03*
D21*
X85000000Y-67120000D03*
%TD*%
D20*
%TO.C,D1*%
X90120000Y-59800000D03*
D21*
X100280000Y-59800000D03*
%TD*%
M02*
