%TF.GenerationSoftware,KiCad,Pcbnew,6.0.7-f9a2dced07~116~ubuntu22.04.1*%
%TF.CreationDate,2022-09-09T13:02:49-03:00*%
%TF.ProjectId,DriverAlarme,44726976-6572-4416-9c61-726d652e6b69,rev?*%
%TF.SameCoordinates,Original*%
%TF.FileFunction,Copper,L1,Top*%
%TF.FilePolarity,Positive*%
%FSLAX46Y46*%
G04 Gerber Fmt 4.6, Leading zero omitted, Abs format (unit mm)*
G04 Created by KiCad (PCBNEW 6.0.7-f9a2dced07~116~ubuntu22.04.1) date 2022-09-09 13:02:49*
%MOMM*%
%LPD*%
G01*
G04 APERTURE LIST*
G04 Aperture macros list*
%AMRoundRect*
0 Rectangle with rounded corners*
0 $1 Rounding radius*
0 $2 $3 $4 $5 $6 $7 $8 $9 X,Y pos of 4 corners*
0 Add a 4 corners polygon primitive as box body*
4,1,4,$2,$3,$4,$5,$6,$7,$8,$9,$2,$3,0*
0 Add four circle primitives for the rounded corners*
1,1,$1+$1,$2,$3*
1,1,$1+$1,$4,$5*
1,1,$1+$1,$6,$7*
1,1,$1+$1,$8,$9*
0 Add four rect primitives between the rounded corners*
20,1,$1+$1,$2,$3,$4,$5,0*
20,1,$1+$1,$4,$5,$6,$7,0*
20,1,$1+$1,$6,$7,$8,$9,0*
20,1,$1+$1,$8,$9,$2,$3,0*%
G04 Aperture macros list end*
%TA.AperFunction,ComponentPad*%
%ADD10RoundRect,0.250000X1.550000X-0.650000X1.550000X0.650000X-1.550000X0.650000X-1.550000X-0.650000X0*%
%TD*%
%TA.AperFunction,ComponentPad*%
%ADD11O,3.600000X1.800000*%
%TD*%
%TA.AperFunction,ComponentPad*%
%ADD12C,1.440000*%
%TD*%
%TA.AperFunction,ComponentPad*%
%ADD13R,2.500000X2.500000*%
%TD*%
%TA.AperFunction,ComponentPad*%
%ADD14O,2.500000X2.500000*%
%TD*%
%TA.AperFunction,ComponentPad*%
%ADD15C,1.400000*%
%TD*%
%TA.AperFunction,ComponentPad*%
%ADD16O,1.400000X1.400000*%
%TD*%
%TA.AperFunction,ComponentPad*%
%ADD17R,1.050000X1.500000*%
%TD*%
%TA.AperFunction,ComponentPad*%
%ADD18O,1.050000X1.500000*%
%TD*%
%TA.AperFunction,ComponentPad*%
%ADD19RoundRect,0.250000X-1.550000X0.650000X-1.550000X-0.650000X1.550000X-0.650000X1.550000X0.650000X0*%
%TD*%
%TA.AperFunction,ComponentPad*%
%ADD20R,2.200000X2.200000*%
%TD*%
%TA.AperFunction,ComponentPad*%
%ADD21O,2.200000X2.200000*%
%TD*%
%TA.AperFunction,Conductor*%
%ADD22C,0.250000*%
%TD*%
G04 APERTURE END LIST*
D10*
%TO.P,J3,1,Pin_1*%
%TO.N,Net-(J3-Pad1)*%
X116867500Y-48885000D03*
D11*
%TO.P,J3,2,Pin_2*%
%TO.N,Net-(J3-Pad2)*%
X116867500Y-43805000D03*
%TD*%
D12*
%TO.P,RV2,1,1*%
%TO.N,Net-(Q2-Pad2)*%
X73145000Y-75340000D03*
%TO.P,RV2,2,2*%
%TO.N,Net-(R4-Pad2)*%
X78225000Y-72800000D03*
%TO.P,RV2,3,3*%
%TO.N,unconnected-(RV2-Pad3)*%
X73145000Y-70260000D03*
%TD*%
%TO.P,RV1,1,1*%
%TO.N,Net-(Q1-Pad2)*%
X73945000Y-54540000D03*
%TO.P,RV1,2,2*%
%TO.N,Net-(R3-Pad2)*%
X79025000Y-52000000D03*
%TO.P,RV1,3,3*%
%TO.N,unconnected-(RV1-Pad3)*%
X73945000Y-49460000D03*
%TD*%
D13*
%TO.P,RL2,1*%
%TO.N,Net-(Q2-Pad1)*%
X89762500Y-75687500D03*
D14*
%TO.P,RL2,2*%
%TO.N,unconnected-(RL2-Pad2)*%
X104762500Y-75687500D03*
%TO.P,RL2,3*%
%TO.N,Net-(R7-Pad2)*%
X109762500Y-75687500D03*
%TO.P,RL2,4*%
%TO.N,Net-(R8-Pad2)*%
X114762500Y-75687500D03*
%TO.P,RL2,5*%
%TO.N,unconnected-(RL2-Pad5)*%
X114762500Y-68187500D03*
%TO.P,RL2,6*%
%TO.N,unconnected-(RL2-Pad6)*%
X109762500Y-68187500D03*
%TO.P,RL2,7*%
%TO.N,unconnected-(RL2-Pad7)*%
X104762500Y-68187500D03*
%TO.P,RL2,8*%
%TO.N,GND*%
X89762500Y-68187500D03*
%TD*%
D13*
%TO.P,RL1,1*%
%TO.N,Net-(Q1-Pad1)*%
X86162500Y-51287500D03*
D14*
%TO.P,RL1,2*%
%TO.N,unconnected-(RL1-Pad2)*%
X101162500Y-51287500D03*
%TO.P,RL1,3*%
%TO.N,Net-(J3-Pad1)*%
X106162500Y-51287500D03*
%TO.P,RL1,4*%
%TO.N,Net-(R7-Pad2)*%
X111162500Y-51287500D03*
%TO.P,RL1,5*%
%TO.N,unconnected-(RL1-Pad5)*%
X111162500Y-43787500D03*
%TO.P,RL1,6*%
%TO.N,unconnected-(RL1-Pad6)*%
X106162500Y-43787500D03*
%TO.P,RL1,7*%
%TO.N,unconnected-(RL1-Pad7)*%
X101162500Y-43787500D03*
%TO.P,RL1,8*%
%TO.N,GND*%
X86162500Y-43787500D03*
%TD*%
D15*
%TO.P,R9,1*%
%TO.N,Net-(J3-Pad2)*%
X115400000Y-61200000D03*
D16*
%TO.P,R9,2*%
%TO.N,Net-(R8-Pad2)*%
X115400000Y-53580000D03*
%TD*%
D15*
%TO.P,R8,1*%
%TO.N,Net-(R7-Pad2)*%
X103790000Y-62000000D03*
D16*
%TO.P,R8,2*%
%TO.N,Net-(R8-Pad2)*%
X111410000Y-62000000D03*
%TD*%
%TO.P,R7,2*%
%TO.N,Net-(R7-Pad2)*%
X111420000Y-56000000D03*
D15*
%TO.P,R7,1*%
%TO.N,Net-(J3-Pad1)*%
X103800000Y-56000000D03*
%TD*%
%TO.P,R4,1*%
%TO.N,Net-(J2-Pad2)*%
X66600000Y-68800000D03*
D16*
%TO.P,R4,2*%
%TO.N,Net-(R4-Pad2)*%
X66600000Y-76420000D03*
%TD*%
D15*
%TO.P,R3,1*%
%TO.N,Net-(J2-Pad1)*%
X68600000Y-59610000D03*
D16*
%TO.P,R3,2*%
%TO.N,Net-(R3-Pad2)*%
X68600000Y-51990000D03*
%TD*%
D15*
%TO.P,R2,1*%
%TO.N,Net-(J1-Pad1)*%
X68400000Y-49010000D03*
D16*
%TO.P,R2,2*%
%TO.N,Net-(J2-Pad1)*%
X68400000Y-41390000D03*
%TD*%
D15*
%TO.P,R1,1*%
%TO.N,Net-(J1-Pad1)*%
X63400000Y-76410000D03*
D16*
%TO.P,R1,2*%
%TO.N,Net-(J2-Pad2)*%
X63400000Y-68790000D03*
%TD*%
D17*
%TO.P,Q2,1,E*%
%TO.N,Net-(Q2-Pad1)*%
X72530000Y-62760000D03*
D18*
%TO.P,Q2,2,B*%
%TO.N,Net-(Q2-Pad2)*%
X73800000Y-62760000D03*
%TO.P,Q2,3,C*%
%TO.N,Net-(Q1-Pad3)*%
X75070000Y-62760000D03*
%TD*%
D17*
%TO.P,Q1,1,E*%
%TO.N,Net-(Q1-Pad1)*%
X71930000Y-43160000D03*
D18*
%TO.P,Q1,2,B*%
%TO.N,Net-(Q1-Pad2)*%
X73200000Y-43160000D03*
%TO.P,Q1,3,C*%
%TO.N,Net-(Q1-Pad3)*%
X74470000Y-43160000D03*
%TD*%
D19*
%TO.P,J2,1,Pin_1*%
%TO.N,Net-(J2-Pad1)*%
X62932500Y-56715000D03*
D11*
%TO.P,J2,2,Pin_2*%
%TO.N,Net-(J2-Pad2)*%
X62932500Y-61795000D03*
%TD*%
D19*
%TO.P,J1,1,Pin_1*%
%TO.N,Net-(J1-Pad1)*%
X63732500Y-43515000D03*
D11*
%TO.P,J1,2,Pin_2*%
%TO.N,Earth*%
X63732500Y-48595000D03*
%TD*%
D20*
%TO.P,D2,1,K*%
%TO.N,Net-(Q2-Pad1)*%
X85000000Y-77280000D03*
D21*
%TO.P,D2,2,A*%
%TO.N,GND*%
X85000000Y-67120000D03*
%TD*%
D20*
%TO.P,D1,1,K*%
%TO.N,Net-(Q1-Pad1)*%
X90120000Y-59800000D03*
D21*
%TO.P,D1,2,A*%
%TO.N,GND*%
X100280000Y-59800000D03*
%TD*%
D22*
%TO.N,Net-(J3-Pad2)*%
X116867500Y-43805000D02*
X120000000Y-46937500D01*
X120000000Y-46937500D02*
X120000000Y-58200000D01*
X120000000Y-58200000D02*
X117000000Y-61200000D01*
X117000000Y-61200000D02*
X115400000Y-61200000D01*
%TO.N,Net-(J3-Pad1)*%
X116867500Y-48885000D02*
X108565000Y-48885000D01*
X108565000Y-48885000D02*
X106162500Y-51287500D01*
%TO.N,Net-(J3-Pad2)*%
X117005000Y-43805000D02*
X116867500Y-43805000D01*
%TO.N,Net-(R3-Pad2)*%
X68600000Y-51990000D02*
X68600000Y-52979949D01*
X68600000Y-52979949D02*
X68620051Y-53000000D01*
X68620051Y-53000000D02*
X69175000Y-53000000D01*
X69175000Y-53000000D02*
X69175000Y-52000000D01*
%TO.N,Net-(R7-Pad2)*%
X111420000Y-56000000D02*
X109790000Y-56000000D01*
X109790000Y-56000000D02*
X103790000Y-62000000D01*
X111162500Y-51287500D02*
X111162500Y-55742500D01*
X111162500Y-55742500D02*
X111420000Y-56000000D01*
%TO.N,Net-(J3-Pad1)*%
X106162500Y-51287500D02*
X106162500Y-53637500D01*
X106162500Y-53637500D02*
X103800000Y-56000000D01*
%TO.N,Net-(R8-Pad2)*%
X111410000Y-62000000D02*
X115400000Y-58010000D01*
X115400000Y-58010000D02*
X115400000Y-53580000D01*
X114762500Y-75687500D02*
X113187500Y-74112500D01*
X113187500Y-74112500D02*
X113187500Y-63777500D01*
X113187500Y-63777500D02*
X111410000Y-62000000D01*
%TO.N,Net-(R7-Pad2)*%
X109762500Y-75687500D02*
X108187500Y-74112500D01*
X108187500Y-74112500D02*
X108187500Y-66397500D01*
X108187500Y-66397500D02*
X103790000Y-62000000D01*
%TO.N,GND*%
X89762500Y-68187500D02*
X86067500Y-68187500D01*
X86067500Y-68187500D02*
X85000000Y-67120000D01*
X100280000Y-59800000D02*
X98150000Y-59800000D01*
X98150000Y-59800000D02*
X89762500Y-68187500D01*
X86162500Y-43787500D02*
X86162500Y-45682500D01*
X86162500Y-45682500D02*
X100280000Y-59800000D01*
%TO.N,Net-(Q1-Pad1)*%
X86162500Y-51287500D02*
X86162500Y-55842500D01*
X86162500Y-55842500D02*
X90120000Y-59800000D01*
X71930000Y-43160000D02*
X71930000Y-42935000D01*
X71930000Y-42935000D02*
X73112890Y-41752110D01*
X73112890Y-41752110D02*
X76627110Y-41752110D01*
X76627110Y-41752110D02*
X86162500Y-51287500D01*
%TO.N,Net-(Q1-Pad2)*%
X73200000Y-43160000D02*
X73200000Y-47956398D01*
X72491399Y-53086399D02*
X73945000Y-54540000D01*
X73200000Y-47956398D02*
X72491399Y-48664999D01*
X72491399Y-48664999D02*
X72491399Y-53086399D01*
%TO.N,Net-(Q2-Pad1)*%
X89762500Y-75687500D02*
X86592500Y-75687500D01*
X86592500Y-75687500D02*
X85000000Y-77280000D01*
X72530000Y-62760000D02*
X72530000Y-62535000D01*
X76172891Y-61685000D02*
X85000000Y-70512109D01*
X72530000Y-62535000D02*
X73380000Y-61685000D01*
X73380000Y-61685000D02*
X76172891Y-61685000D01*
X85000000Y-70512109D02*
X85000000Y-77280000D01*
%TO.N,Net-(Q2-Pad2)*%
X73145000Y-75340000D02*
X74190000Y-74295000D01*
X74190000Y-74295000D02*
X74190000Y-63150000D01*
X74190000Y-63150000D02*
X73800000Y-62760000D01*
%TO.N,Net-(R4-Pad2)*%
X66600000Y-76420000D02*
X74605000Y-76420000D01*
X74605000Y-76420000D02*
X78225000Y-72800000D01*
%TO.N,Net-(J2-Pad2)*%
X63400000Y-68790000D02*
X66590000Y-68790000D01*
X66590000Y-68790000D02*
X66600000Y-68800000D01*
X62932500Y-61795000D02*
X62932500Y-68322500D01*
X62932500Y-68322500D02*
X63400000Y-68790000D01*
%TO.N,Net-(J1-Pad1)*%
X68400000Y-49010000D02*
X69625000Y-50235000D01*
X69625000Y-50235000D02*
X69625000Y-70185000D01*
X69625000Y-70185000D02*
X63400000Y-76410000D01*
%TO.N,Net-(J2-Pad1)*%
X62932500Y-56715000D02*
X65827500Y-59610000D01*
X65827500Y-59610000D02*
X68600000Y-59610000D01*
X62932500Y-56715000D02*
X65857500Y-53790000D01*
X65857500Y-53790000D02*
X65857500Y-47103896D01*
X61607500Y-42626827D02*
X62844327Y-41390000D01*
X65857500Y-47103896D02*
X64676802Y-45923198D01*
X64676802Y-45923198D02*
X63127525Y-45923198D01*
X63127525Y-45923198D02*
X61607500Y-44403173D01*
X61607500Y-44403173D02*
X61607500Y-42626827D01*
X62844327Y-41390000D02*
X68400000Y-41390000D01*
%TO.N,Net-(J1-Pad1)*%
X63732500Y-43515000D02*
X63732500Y-44342500D01*
X63732500Y-44342500D02*
X68400000Y-49010000D01*
%TD*%
M02*
