%TF.GenerationSoftware,KiCad,Pcbnew,6.0.7-f9a2dced07~116~ubuntu22.04.1*%
%TF.CreationDate,2022-09-09T13:02:49-03:00*%
%TF.ProjectId,DriverAlarme,44726976-6572-4416-9c61-726d652e6b69,rev?*%
%TF.SameCoordinates,Original*%
%TF.FileFunction,Copper,L2,Bot*%
%TF.FilePolarity,Positive*%
%FSLAX46Y46*%
G04 Gerber Fmt 4.6, Leading zero omitted, Abs format (unit mm)*
G04 Created by KiCad (PCBNEW 6.0.7-f9a2dced07~116~ubuntu22.04.1) date 2022-09-09 13:02:49*
%MOMM*%
%LPD*%
G01*
G04 APERTURE LIST*
G04 Aperture macros list*
%AMRoundRect*
0 Rectangle with rounded corners*
0 $1 Rounding radius*
0 $2 $3 $4 $5 $6 $7 $8 $9 X,Y pos of 4 corners*
0 Add a 4 corners polygon primitive as box body*
4,1,4,$2,$3,$4,$5,$6,$7,$8,$9,$2,$3,0*
0 Add four circle primitives for the rounded corners*
1,1,$1+$1,$2,$3*
1,1,$1+$1,$4,$5*
1,1,$1+$1,$6,$7*
1,1,$1+$1,$8,$9*
0 Add four rect primitives between the rounded corners*
20,1,$1+$1,$2,$3,$4,$5,0*
20,1,$1+$1,$4,$5,$6,$7,0*
20,1,$1+$1,$6,$7,$8,$9,0*
20,1,$1+$1,$8,$9,$2,$3,0*%
G04 Aperture macros list end*
%TA.AperFunction,ComponentPad*%
%ADD10RoundRect,0.250000X1.550000X-0.650000X1.550000X0.650000X-1.550000X0.650000X-1.550000X-0.650000X0*%
%TD*%
%TA.AperFunction,ComponentPad*%
%ADD11O,3.600000X1.800000*%
%TD*%
%TA.AperFunction,ComponentPad*%
%ADD12C,1.440000*%
%TD*%
%TA.AperFunction,ComponentPad*%
%ADD13R,2.500000X2.500000*%
%TD*%
%TA.AperFunction,ComponentPad*%
%ADD14O,2.500000X2.500000*%
%TD*%
%TA.AperFunction,ComponentPad*%
%ADD15C,1.400000*%
%TD*%
%TA.AperFunction,ComponentPad*%
%ADD16O,1.400000X1.400000*%
%TD*%
%TA.AperFunction,ComponentPad*%
%ADD17R,1.050000X1.500000*%
%TD*%
%TA.AperFunction,ComponentPad*%
%ADD18O,1.050000X1.500000*%
%TD*%
%TA.AperFunction,ComponentPad*%
%ADD19RoundRect,0.250000X-1.550000X0.650000X-1.550000X-0.650000X1.550000X-0.650000X1.550000X0.650000X0*%
%TD*%
%TA.AperFunction,ComponentPad*%
%ADD20R,2.200000X2.200000*%
%TD*%
%TA.AperFunction,ComponentPad*%
%ADD21O,2.200000X2.200000*%
%TD*%
%TA.AperFunction,Conductor*%
%ADD22C,0.250000*%
%TD*%
G04 APERTURE END LIST*
D10*
%TO.P,J3,1,Pin_1*%
%TO.N,Net-(J3-Pad1)*%
X116867500Y-48885000D03*
D11*
%TO.P,J3,2,Pin_2*%
%TO.N,Net-(J3-Pad2)*%
X116867500Y-43805000D03*
%TD*%
D12*
%TO.P,RV2,1,1*%
%TO.N,Net-(Q2-Pad2)*%
X73145000Y-75340000D03*
%TO.P,RV2,2,2*%
%TO.N,Net-(R4-Pad2)*%
X78225000Y-72800000D03*
%TO.P,RV2,3,3*%
%TO.N,unconnected-(RV2-Pad3)*%
X73145000Y-70260000D03*
%TD*%
%TO.P,RV1,1,1*%
%TO.N,Net-(Q1-Pad2)*%
X73945000Y-54540000D03*
%TO.P,RV1,2,2*%
%TO.N,Net-(R3-Pad2)*%
X79025000Y-52000000D03*
%TO.P,RV1,3,3*%
%TO.N,unconnected-(RV1-Pad3)*%
X73945000Y-49460000D03*
%TD*%
D13*
%TO.P,RL2,1*%
%TO.N,Net-(Q2-Pad1)*%
X89762500Y-75687500D03*
D14*
%TO.P,RL2,2*%
%TO.N,unconnected-(RL2-Pad2)*%
X104762500Y-75687500D03*
%TO.P,RL2,3*%
%TO.N,Net-(R7-Pad2)*%
X109762500Y-75687500D03*
%TO.P,RL2,4*%
%TO.N,Net-(R8-Pad2)*%
X114762500Y-75687500D03*
%TO.P,RL2,5*%
%TO.N,unconnected-(RL2-Pad5)*%
X114762500Y-68187500D03*
%TO.P,RL2,6*%
%TO.N,unconnected-(RL2-Pad6)*%
X109762500Y-68187500D03*
%TO.P,RL2,7*%
%TO.N,unconnected-(RL2-Pad7)*%
X104762500Y-68187500D03*
%TO.P,RL2,8*%
%TO.N,GND*%
X89762500Y-68187500D03*
%TD*%
D13*
%TO.P,RL1,1*%
%TO.N,Net-(Q1-Pad1)*%
X86162500Y-51287500D03*
D14*
%TO.P,RL1,2*%
%TO.N,unconnected-(RL1-Pad2)*%
X101162500Y-51287500D03*
%TO.P,RL1,3*%
%TO.N,Net-(J3-Pad1)*%
X106162500Y-51287500D03*
%TO.P,RL1,4*%
%TO.N,Net-(R7-Pad2)*%
X111162500Y-51287500D03*
%TO.P,RL1,5*%
%TO.N,unconnected-(RL1-Pad5)*%
X111162500Y-43787500D03*
%TO.P,RL1,6*%
%TO.N,unconnected-(RL1-Pad6)*%
X106162500Y-43787500D03*
%TO.P,RL1,7*%
%TO.N,unconnected-(RL1-Pad7)*%
X101162500Y-43787500D03*
%TO.P,RL1,8*%
%TO.N,GND*%
X86162500Y-43787500D03*
%TD*%
D15*
%TO.P,R9,1*%
%TO.N,Net-(J3-Pad2)*%
X115400000Y-61200000D03*
D16*
%TO.P,R9,2*%
%TO.N,Net-(R8-Pad2)*%
X115400000Y-53580000D03*
%TD*%
D15*
%TO.P,R8,1*%
%TO.N,Net-(R7-Pad2)*%
X103790000Y-62000000D03*
D16*
%TO.P,R8,2*%
%TO.N,Net-(R8-Pad2)*%
X111410000Y-62000000D03*
%TD*%
%TO.P,R7,2*%
%TO.N,Net-(R7-Pad2)*%
X111420000Y-56000000D03*
D15*
%TO.P,R7,1*%
%TO.N,Net-(J3-Pad1)*%
X103800000Y-56000000D03*
%TD*%
%TO.P,R4,1*%
%TO.N,Net-(J2-Pad2)*%
X66600000Y-68800000D03*
D16*
%TO.P,R4,2*%
%TO.N,Net-(R4-Pad2)*%
X66600000Y-76420000D03*
%TD*%
D15*
%TO.P,R3,1*%
%TO.N,Net-(J2-Pad1)*%
X68600000Y-59610000D03*
D16*
%TO.P,R3,2*%
%TO.N,Net-(R3-Pad2)*%
X68600000Y-51990000D03*
%TD*%
D15*
%TO.P,R2,1*%
%TO.N,Net-(J1-Pad1)*%
X68400000Y-49010000D03*
D16*
%TO.P,R2,2*%
%TO.N,Net-(J2-Pad1)*%
X68400000Y-41390000D03*
%TD*%
D15*
%TO.P,R1,1*%
%TO.N,Net-(J1-Pad1)*%
X63400000Y-76410000D03*
D16*
%TO.P,R1,2*%
%TO.N,Net-(J2-Pad2)*%
X63400000Y-68790000D03*
%TD*%
D17*
%TO.P,Q2,1,E*%
%TO.N,Net-(Q2-Pad1)*%
X72530000Y-62760000D03*
D18*
%TO.P,Q2,2,B*%
%TO.N,Net-(Q2-Pad2)*%
X73800000Y-62760000D03*
%TO.P,Q2,3,C*%
%TO.N,Net-(Q1-Pad3)*%
X75070000Y-62760000D03*
%TD*%
D17*
%TO.P,Q1,1,E*%
%TO.N,Net-(Q1-Pad1)*%
X71930000Y-43160000D03*
D18*
%TO.P,Q1,2,B*%
%TO.N,Net-(Q1-Pad2)*%
X73200000Y-43160000D03*
%TO.P,Q1,3,C*%
%TO.N,Net-(Q1-Pad3)*%
X74470000Y-43160000D03*
%TD*%
D19*
%TO.P,J2,1,Pin_1*%
%TO.N,Net-(J2-Pad1)*%
X62932500Y-56715000D03*
D11*
%TO.P,J2,2,Pin_2*%
%TO.N,Net-(J2-Pad2)*%
X62932500Y-61795000D03*
%TD*%
D19*
%TO.P,J1,1,Pin_1*%
%TO.N,Net-(J1-Pad1)*%
X63732500Y-43515000D03*
D11*
%TO.P,J1,2,Pin_2*%
%TO.N,Earth*%
X63732500Y-48595000D03*
%TD*%
D20*
%TO.P,D2,1,K*%
%TO.N,Net-(Q2-Pad1)*%
X85000000Y-77280000D03*
D21*
%TO.P,D2,2,A*%
%TO.N,GND*%
X85000000Y-67120000D03*
%TD*%
D20*
%TO.P,D1,1,K*%
%TO.N,Net-(Q1-Pad1)*%
X90120000Y-59800000D03*
D21*
%TO.P,D1,2,A*%
%TO.N,GND*%
X100280000Y-59800000D03*
%TD*%
D22*
%TO.N,Net-(Q1-Pad3)*%
X75070000Y-62760000D02*
X79760000Y-62760000D01*
X79760000Y-62760000D02*
X79800000Y-62800000D01*
X79800000Y-62800000D02*
X80478601Y-62121399D01*
X80478601Y-62121399D02*
X80478601Y-47478601D01*
X80478601Y-47478601D02*
X76160000Y-43160000D01*
X76160000Y-43160000D02*
X74470000Y-43160000D01*
%TO.N,Net-(R3-Pad2)*%
X68600000Y-51990000D02*
X79015000Y-51990000D01*
X79015000Y-51990000D02*
X79025000Y-52000000D01*
%TD*%
M02*
